<?xml version="1.0" encoding="UTF-8"?>
<svg version="1.1" xmlns="http://www.w3.org/2000/svg" width="2160" height="2160">
<path d="M0 0 C712.8 0 1425.6 0 2160 0 C2160 712.8 2160 1425.6 2160 2160 C1447.2 2160 734.4 2160 0 2160 C0 1447.2 0 734.4 0 0 Z " fill="#DA271E" transform="translate(0,0)"/>
<path d="M0 0 C712.8 0 1425.6 0 2160 0 C2160 712.8 2160 1425.6 2160 2160 C1447.2 2160 734.4 2160 0 2160 C0 1447.2 0 734.4 0 0 Z M518.29410934 354.45813179 C517.08117672 354.48856773 517.08117672 354.48856773 515.8437404 354.51961853 C499.90572291 354.93016083 483.99043607 355.67971429 468.07533646 356.62338257 C465.87996948 356.75340735 463.68448343 356.88128077 461.48898315 357.0090332 C435.56197591 358.52810331 409.77741247 360.7968818 384 364 C382.4635629 364.18799912 380.92710512 364.37582935 379.390625 364.56347656 C366.2665789 366.17658849 353.19688538 367.93110937 340.23388672 370.56396484 C337.52721943 371.09228263 334.81350863 371.57191452 332.09765625 372.05078125 C297.03048939 378.26956353 262.07788302 386.60558749 229 400 C227.64177124 400.54333984 227.64177124 400.54333984 226.25610352 401.09765625 C213.13389032 406.36065511 200.41731872 411.99366942 188.05322266 418.86230469 C186.18400846 419.8980405 184.30393259 420.90927614 182.41796875 421.9140625 C167.6693155 429.98375636 153.67210029 439.95959155 141 451 C140.27039063 451.62003906 139.54078125 452.24007812 138.7890625 452.87890625 C124.50592933 465.33399337 111.26999303 478.81651509 100.24853516 494.25195312 C99.20896668 495.7074303 98.14460207 497.14515747 97.07421875 498.578125 C87.45512659 511.70967801 79.48162936 526.0959144 73 541 C72.62617187 541.80179688 72.25234375 542.60359375 71.8671875 543.4296875 C69.31616336 548.91338505 67.32147451 554.56465977 65.34375 560.27734375 C64.31826392 563.11829793 63.22512808 565.87837781 62.06640625 568.6640625 C59.72702224 574.46641548 58.07140485 580.40490298 56.4375 586.4375 C56.14681641 587.49259766 55.85613281 588.54769531 55.55664062 589.63476562 C54.97797276 591.73842396 54.40289597 593.84307365 53.83154297 595.94873047 C53.29183012 597.92915655 52.74442248 599.90750767 52.18798828 601.88330078 C49.10712774 612.88195357 47.26617535 624.05594157 45.39550781 635.3112793 C45.0036267 637.66571069 44.6074362 640.01938929 44.2109375 642.37304688 C39.53954446 670.27872909 37.03172279 698.27272033 35.375 726.5 C35.31265167 727.51942688 35.25030334 728.53885376 35.18606567 729.58917236 C34.27785727 744.61583836 33.79904023 759.6432214 33.46755981 774.69207764 C33.44571023 775.68119954 33.42386065 776.67032144 33.40134896 777.68941674 C32.89434295 801.2528141 32.85624082 824.81234673 32.86927533 848.38025069 C32.87158707 854.59828399 32.86802195 860.81631478 32.86529541 867.03434753 C32.86115193 878.44809383 32.86144491 889.86183263 32.86420688 901.27557885 C32.86674572 911.82177878 32.86736844 922.36797677 32.86618423 932.91417694 C32.86610785 933.62004927 32.86603146 934.3259216 32.86595276 935.05318399 C32.86564132 937.92007917 32.8653229 940.78697436 32.864993 943.65386953 C32.86195127 970.40732537 32.86468053 997.16077782 32.8700899 1023.91423313 C32.87483983 1047.58621582 32.87440364 1071.25819313 32.86962891 1094.93017578 C32.86425512 1121.66006959 32.86216102 1148.38996042 32.86524117 1175.11985469 C32.86556179 1177.97710721 32.86587464 1180.83435972 32.86618423 1183.69161224 C32.86626331 1184.39490334 32.86634239 1185.09819444 32.86642386 1185.82279739 C32.86755284 1196.36029237 32.86624722 1206.89778517 32.86370468 1217.43527985 C32.86082485 1229.42885678 32.86169855 1241.422426 32.86698543 1253.41600272 C32.86958737 1259.51659089 32.87068803 1265.61716822 32.86733627 1271.71775627 C32.41589915 1332.18992863 32.41589915 1332.18992863 37.5703125 1392.3671875 C38.06376085 1396.53906902 38.26416509 1400.6800333 38.4375 1404.875 C39.44750132 1427.45095619 43.22455272 1449.7537013 47 1472 C47.2165625 1473.28874023 47.2165625 1473.28874023 47.4375 1474.60351562 C48.11578116 1478.6272773 48.82392191 1482.64429968 49.56689453 1486.65673828 C49.89667357 1488.44096558 50.22244531 1490.22593407 50.54638672 1492.01123047 C51.16799667 1495.42582759 51.80159604 1498.83803805 52.4375 1502.25 C52.63085938 1503.31581299 52.82421875 1504.38162598 53.0234375 1505.47973633 C54.25606598 1511.99887068 55.89101939 1518.2517486 57.90893555 1524.57080078 C59.07869748 1528.24734498 60.17585991 1531.94264746 61.26171875 1535.64453125 C65.13215906 1548.74142106 69.06625158 1561.7719801 73.875 1574.5625 C74.23166748 1575.51165283 74.58833496 1576.46080566 74.95581055 1577.4387207 C76.76866038 1582.14444326 78.75603937 1586.66918247 81.0690918 1591.14941406 C82.5216496 1594.03700602 83.73354859 1597.02703052 85 1600 C99.02713119 1629.44725692 116.09722681 1656.75902226 138 1681 C138.98585959 1682.10921282 139.97154065 1683.21858434 140.95703125 1684.328125 C159.49531771 1704.9975699 181.28487164 1722.59297397 205 1737 C206.51013672 1737.95326172 206.51013672 1737.95326172 208.05078125 1738.92578125 C226.37569251 1750.36383584 245.87130816 1760.17560645 266 1768 C266.63244629 1768.25120605 267.26489258 1768.50241211 267.91650391 1768.76123047 C288.13618373 1776.77983867 309.00515944 1783.35015512 330 1789 C330.74540039 1789.20544434 331.49080078 1789.41088867 332.25878906 1789.62255859 C391.0566793 1805.73954964 453.18399467 1811.78048868 513.87792969 1814.30322266 C514.81367828 1814.34234268 515.74942688 1814.38146271 516.71353149 1814.42176819 C518.44310666 1814.49355768 520.17273604 1814.56406256 521.9024353 1814.63279724 C526.47492542 1814.82165493 531.03829775 1815.06744103 535.60464939 1815.37264673 C545.52750411 1816.01546762 555.40916358 1816.14067905 565.34987831 1816.12584114 C567.14517832 1816.12688685 568.94047811 1816.12837 570.73577744 1816.13024551 C575.64151212 1816.1341156 580.54722694 1816.13182224 585.45296127 1816.12846755 C590.80098423 1816.12591993 596.14900426 1816.12919511 601.4970268 1816.13171089 C610.86170404 1816.13531613 620.22637551 1816.13521696 629.59105301 1816.13266373 C643.51797902 1816.128877 657.44490017 1816.13081729 671.37182615 1816.13387203 C694.81144913 1816.13883132 718.25106968 1816.13901787 741.6906929 1816.13629532 C764.92081355 1816.13359845 788.15093313 1816.13254072 811.38105392 1816.13381577 C812.84172361 1816.13389325 814.30239329 1816.1339704 815.76306298 1816.13404724 C821.63355307 1816.13435773 827.50404317 1816.1346764 833.37453327 1816.135007 C849.78579304 1816.13592397 866.19705281 1816.1364946 882.60831261 1816.13679314 C883.72930275 1816.13681361 883.72930275 1816.13681361 884.87293917 1816.13683449 C908.68271146 1816.13724371 932.49248344 1816.13611731 956.30225563 1816.13394356 C957.07433788 1816.13387331 957.84642012 1816.13380306 958.6418988 1816.13373068 C971.17870485 1816.13258584 983.7155109 1816.13136632 996.25231695 1816.13014051 C1045.91414319 1816.1252899 1095.57596674 1816.12550483 1145.23779297 1816.13037109 C1157.74219068 1816.13159243 1170.24658838 1816.13280355 1182.7509861 1816.13394356 C1183.52107725 1816.13401401 1184.29116839 1816.13408445 1185.08459564 1816.13415704 C1208.8504766 1816.13631619 1232.61635733 1816.13722691 1256.38223839 1816.13679314 C1257.50284274 1816.13677276 1257.50284274 1816.13677276 1258.64608557 1816.13675197 C1275.05285396 1816.13643936 1291.45962232 1816.13580546 1307.86639069 1816.13488263 C1313.73846938 1816.13455353 1319.61054807 1816.13424045 1325.48262677 1816.13393192 C1326.94329472 1816.13385453 1328.40396268 1816.1337758 1329.86463063 1816.13369573 C1353.06389242 1816.13242738 1376.26315303 1816.13384434 1399.46241466 1816.13654587 C1423.51198148 1816.13931576 1447.56154537 1816.13826429 1471.61111183 1816.13301457 C1485.44916448 1816.13009301 1499.28721069 1816.12986511 1513.12526316 1816.13366075 C1522.39849704 1816.13592223 1531.67172581 1816.13447353 1540.94495893 1816.13015598 C1546.2091232 1816.12780373 1551.47327481 1816.12690719 1556.73743863 1816.13056196 C1576.61606798 1816.14332451 1596.48113769 1816.05354299 1616.35390282 1815.53478813 C1617.54863521 1815.50362662 1617.54863521 1815.50362662 1618.76750362 1815.47183559 C1632.01960014 1815.11705352 1645.2536435 1814.54209058 1658.48754883 1813.75268555 C1661.76016564 1813.5581812 1665.03330072 1813.37525174 1668.30664062 1813.19335938 C1680.45520512 1812.5012088 1692.54373581 1811.55483783 1704.64151001 1810.25057983 C1707.78627731 1809.91646128 1710.93336037 1809.60823964 1714.08076477 1809.30012512 C1731.57555006 1807.58276793 1748.93710799 1805.66055654 1766.23876953 1802.49121094 C1769.10103811 1801.98202576 1771.96766652 1801.52008566 1774.83984375 1801.0703125 C1794.97431709 1797.90422396 1814.75808893 1793.42195813 1834.5 1788.375 C1835.59094971 1788.09809326 1836.68189941 1787.82118652 1837.8059082 1787.53588867 C1843.81226108 1785.96927606 1849.62128748 1784.13995749 1855.43188477 1781.95751953 C1857.79399317 1781.07680947 1860.16455604 1780.25775092 1862.55859375 1779.46875 C1893.74134149 1769.18279819 1923.85805794 1755.59661696 1951 1737 C1951.59828613 1736.59458984 1952.19657227 1736.18917969 1952.81298828 1735.77148438 C1972.96925522 1722.0533233 1992.29197392 1705.68343717 2008 1687 C2008.75845215 1686.11803955 2008.75845215 1686.11803955 2009.53222656 1685.21826172 C2018.07531455 1675.27430426 2025.69366362 1664.98624916 2032.75585938 1653.94335938 C2033.81934979 1652.28217732 2034.90013011 1650.63208574 2035.984375 1648.984375 C2047.25235727 1631.72058564 2056.43981752 1613.16479825 2064 1594 C2064.43054687 1592.91074219 2064.86109375 1591.82148437 2065.3046875 1590.69921875 C2067.39886348 1585.32747149 2069.3731592 1579.94504326 2071.17871094 1574.47045898 C2072.04429163 1571.86676963 2072.93630567 1569.27315255 2073.83203125 1566.6796875 C2078.25812983 1553.75828139 2082.02526707 1540.80291811 2085.32641602 1527.55249023 C2085.99671046 1525.01246543 2086.75875177 1522.51741389 2087.546875 1520.01171875 C2089.13696136 1514.79905867 2090.07196568 1509.56152915 2090.9375 1504.1875 C2091.27573479 1502.15858529 2091.61561566 1500.12994439 2091.95703125 1498.1015625 C2092.21347412 1496.57644043 2092.21347412 1496.57644043 2092.47509766 1495.02050781 C2093.28612543 1490.35351449 2094.20933882 1485.70985574 2095.125 1481.0625 C2096.51000696 1473.93210891 2097.614859 1466.83437423 2098.43359375 1459.61328125 C2098.8713009 1455.86921484 2099.41320212 1452.14573321 2099.97265625 1448.41796875 C2101.73162719 1436.67823055 2103.41242232 1425.09957134 2103.7265625 1413.22265625 C2103.868422 1409.88956763 2104.36261833 1406.69746232 2104.92578125 1403.41015625 C2106.35810479 1394.46842011 2106.83533976 1385.46647393 2107.37768555 1376.43408203 C2107.55756188 1373.45673663 2107.74967277 1370.48038089 2107.94335938 1367.50390625 C2110.06942123 1333.76825572 2110.15559553 1300.01063874 2110.16004276 1266.22238147 C2110.16192534 1260.04110891 2110.16948779 1253.85984249 2110.17617798 1247.67857361 C2110.19033343 1233.51899326 2110.19627126 1219.35941713 2110.20086992 1205.19983142 C2110.20322488 1198.16509997 2110.2068294 1191.13036932 2110.2105653 1184.0956385 C2110.22338571 1159.89829971 2110.23410516 1135.70096131 2110.2375679 1111.50361919 C2110.23778951 1109.99153705 2110.2380113 1108.47945491 2110.23823325 1106.96737276 C2110.23845387 1105.45216955 2110.23867436 1103.93696634 2110.2388947 1102.42176312 C2110.23933718 1099.38330758 2110.23978432 1096.34485203 2110.24023438 1093.30639648 C2110.24039846 1092.17640036 2110.24039846 1092.17640036 2110.24056586 1091.02357604 C2110.24418663 1066.66390164 2110.26007735 1042.30425719 2110.28342474 1017.94459423 C2110.30820628 992.04007113 2110.32174915 966.13556508 2110.32293582 940.23102981 C2110.3231072 937.36917197 2110.3233226 934.50731414 2110.32357025 931.64545631 C2110.32362602 930.94105841 2110.32368179 930.2366605 2110.32373925 929.5109172 C2110.32473463 919.710014 2110.33228773 909.90913568 2110.34507416 900.10824105 C2110.64268438 819.0044838 2110.64268438 819.0044838 2107.19957638 737.99754167 C2106.83945443 732.58868233 2106.5185354 727.17741658 2106.19268799 721.7664032 C2105.19159837 705.20523656 2103.87771598 688.89679684 2101.37277222 672.48612976 C2100.73384149 668.22490901 2100.15244276 663.95572227 2099.5625 659.6875 C2097.28999405 643.69286348 2094.90130197 627.72764936 2090.984375 612.04296875 C2090.30230087 609.3060468 2089.69366976 606.56664218 2089.140625 603.80078125 C2084.66735214 581.65933014 2076.8531407 559.33930441 2067 539 C2066.71930664 538.41814941 2066.43861328 537.83629883 2066.14941406 537.23681641 C2055.72884274 515.72853665 2043.88818723 495.93673911 2028 478 C2027.27425781 477.16339844 2026.54851562 476.32679688 2025.80078125 475.46484375 C2016.08643468 464.42173259 2005.71411042 453.9197741 1994 445 C1993.43700195 444.57122559 1992.87400391 444.14245117 1992.29394531 443.70068359 C1978.54057262 433.28403727 1964.19482927 424.16582756 1949 416 C1948.37963867 415.66645508 1947.75927734 415.33291016 1947.12011719 414.98925781 C1916.04372445 398.47324792 1882.09147234 387.54502775 1847.82421875 379.95703125 C1844.9781091 379.24477705 1842.3507893 378.44855531 1839.59765625 377.4765625 C1835.02256588 375.91351628 1830.53295416 375.17727187 1825.75 374.5625 C1818.78337127 373.59628258 1811.89624555 372.44201555 1805 371.0625 C1792.07287416 368.52693885 1779.05656143 366.72581889 1766 365 C1764.77877441 364.835 1763.55754883 364.67 1762.29931641 364.5 C1734.31032983 360.76667679 1706.165559 358.86131849 1678 357 C1677.08957947 356.93963562 1676.17915894 356.87927124 1675.2411499 356.81707764 C1672.77942765 356.65518296 1670.31752641 356.49654792 1667.85546875 356.33984375 C1666.86864861 356.27586143 1666.86864861 356.27586143 1665.8618927 356.21058655 C1650.82264849 355.27773559 1635.76732012 354.79519859 1620.70467758 354.45715523 C1619.7616182 354.43571185 1618.81855881 354.41426848 1617.84692187 354.3921753 C1596.87672886 353.92533563 1575.91215142 353.85697882 1554.93760002 353.87153245 C1549.53907121 353.87412713 1544.14054497 353.87078693 1538.74201655 353.86828911 C1529.3305021 353.86471731 1519.91899341 353.864762 1510.50747871 353.86733627 C1496.51128565 353.87115397 1482.51509735 353.86916698 1468.51890431 353.86612797 C1444.95206804 353.86119107 1421.38523405 353.86097179 1397.81839752 353.86370468 C1374.48778503 353.86640879 1351.15717361 353.86745555 1327.82656097 353.86618423 C1326.35530945 353.86610675 1324.88405792 353.8660296 1323.41280639 353.86595276 C1317.49903056 353.86564224 1311.58525474 353.86532357 1305.67147891 353.864993 C1289.14513568 353.86407646 1272.61879244 353.86350552 1256.09244919 353.86320686 C1255.34018086 353.86319322 1254.58791254 353.86317957 1253.81284821 353.86316551 C1229.87911409 353.86275686 1205.94538029 353.86387992 1182.01164627 353.86605644 C1181.23653834 353.86612669 1180.4614304 353.86619694 1179.66283435 353.86626932 C1167.07919835 353.86741398 1154.49556235 353.86863357 1141.91192635 353.86985949 C1092.00785235 353.87471602 1042.10378102 353.87448875 992.19970703 353.86962891 C979.61733119 353.86840752 967.03495535 353.86719639 954.4525795 353.86605644 C953.29015134 353.86595077 953.29015134 353.86595077 952.10423979 353.86584296 C928.18961924 353.86368395 904.27499891 353.86277303 880.36037827 353.86320686 C879.23290744 353.86322724 879.23290744 353.86322724 878.08265943 353.86324803 C861.57648395 353.86356062 845.0703085 353.8641945 828.56413304 353.86511737 C822.65721774 353.86544645 816.75030243 353.86575954 810.84338713 353.86606808 C809.37417527 353.86614547 807.9049634 353.8662242 806.43575154 353.86630427 C783.11543574 353.86757186 759.79512112 353.86615718 736.47480548 353.86345413 C712.3165376 353.86068456 688.15827262 353.86173534 664.0000051 353.86698543 C650.10425805 353.86990625 636.2085174 353.87013591 622.31277053 353.86633925 C613.00075989 353.86407717 603.68875433 353.8655275 594.37674443 353.86984402 C589.0917289 353.87219526 583.80672598 353.87309501 578.5217109 353.86943804 C558.43965878 353.85660025 538.3705898 353.95102053 518.29410934 354.45813179 Z " fill="#FEFEFE" transform="translate(0,0)"/>
<path d="M0 0 C2.58582193 1.37393635 5.20699832 2.66890357 7.83374023 3.96240234 C18.47700883 9.20537878 28.94057768 14.79228627 39.42333984 20.34667969 C47.49030793 24.61838075 55.55730205 28.87765695 63.73681641 32.93066406 C74.24096822 38.13593002 84.607587 43.60679289 94.98681641 49.05566406 C95.84807129 49.5076416 96.70932617 49.95961914 97.59667969 50.42529297 C104.53288037 54.0669685 111.46784484 57.71088117 118.38134766 61.39550781 C124.96316001 64.90108692 131.55435345 68.37034538 138.23681641 71.68066406 C158.12387148 81.53447171 177.75432593 91.92842049 197.36621094 102.31591797 C205.36971794 106.55420068 213.37119076 110.78523567 221.48681641 114.80566406 C237.32361719 122.65232125 252.95792216 130.9153312 268.58618164 139.16772461 C275.65908484 142.89617533 282.75897197 146.57218578 289.86181641 150.24316406 C290.47416138 150.55964905 291.08650635 150.87613403 291.71740723 151.20220947 C296.14004154 153.48766679 300.56335977 155.77179885 304.98681641 158.05566406 C310.02893798 160.65895081 315.07074995 163.26283466 320.11181641 165.86816406 C320.72714233 166.18613953 321.34246826 166.50411499 321.97644043 166.83172607 C329.03711946 170.48138263 336.08697587 174.14993478 343.11181641 177.86816406 C352.03237024 182.58741828 361.00999918 187.19469752 369.98681641 191.80566406 C371.51848674 192.59266591 373.05014365 193.3796939 374.58178711 194.16674805 C375.33785751 194.55525436 376.09392792 194.94376068 376.87290955 195.34403992 C380.57763279 197.2477442 384.28232396 199.15151068 387.98681641 201.05566406 C388.63958557 201.39118286 389.29235474 201.72670166 389.96490479 202.0723877 C397.29363287 205.84044789 404.61168788 209.62804882 411.91162109 213.45166016 C413.96318901 214.52174599 416.01855852 215.58457451 418.07763672 216.64013672 C429.73040727 222.61615629 440.09852697 228.29043637 448.98681641 238.05566406 C449.65455078 238.76851562 450.32228516 239.48136719 451.01025391 240.21582031 C463.57860171 254.89718729 466.1711908 272.85348849 465.22509766 291.51855469 C463.75974463 307.12096114 454.44389609 322.71821867 442.98681641 333.05566406 C435.63821735 338.81551731 427.6088221 343.05277892 419.29931641 347.24316406 C418.01527242 347.89815713 416.73166867 348.55401388 415.44848633 349.21069336 C412.8612138 350.53408201 410.27239048 351.85434679 407.68212891 353.171875 C402.372841 355.87504174 397.0831439 358.61560607 391.79931641 361.36816406 C390.86700195 361.85341553 389.9346875 362.33866699 388.97412109 362.83862305 C383.11319444 365.90370681 377.31587032 369.06695724 371.54931641 372.30566406 C365.7467994 375.56325078 359.90131592 378.66130064 353.93164062 381.60009766 C346.46568158 385.28550615 339.0713355 389.10942763 331.67431641 392.93066406 C330.99152618 393.28330322 330.30873596 393.63594238 329.60525513 393.99926758 C321.07408284 398.40710932 312.55510638 402.83660739 304.06787109 407.32861328 C299.54704914 409.71841811 295.01234242 412.07941873 290.46728516 414.42285156 C279.60847868 420.02259943 268.78903185 425.64889024 258.14331055 431.64501953 C249.73215342 436.36106224 241.07647602 440.56651981 232.41650391 444.80175781 C223.21050312 449.33344674 214.16901915 454.15148285 205.13687134 459.0189209 C195.45030194 464.23608725 185.70893007 469.33740769 175.92431641 474.36816406 C175.26297699 474.70821472 174.60163757 475.04826538 173.92025757 475.39862061 C173.26441681 475.73581116 172.60857605 476.07300171 171.93286133 476.42041016 C170.64224317 477.08396602 169.35163426 477.74753989 168.06103516 478.41113281 C167.12942818 478.89005981 167.12942818 478.89005981 166.17900085 479.37866211 C160.45252809 482.32518976 154.75244558 485.31991261 149.06054688 488.33251953 C144.5651329 490.70837006 140.05656786 493.05691339 135.53759766 495.38769531 C125.06139974 500.79162001 114.60277164 506.20259701 104.29931641 511.93066406 C98.16072471 515.34173475 91.98876956 518.62030218 85.68847656 521.72167969 C78.63745303 525.20136067 71.65637483 528.81529014 64.67431641 532.43066406 C64.03851654 532.75980804 63.40271667 533.08895203 62.74765015 533.42807007 C54.53908434 537.67929056 46.3446243 541.9563658 38.17163086 546.27563477 C30.08507379 550.54424757 21.96586502 554.75034032 13.83422852 558.93237305 C8.88300729 561.48429934 3.94966936 564.0407103 -0.88427734 566.80957031 C-17.68597411 576.383317 -35.80686298 580.01812189 -54.85693359 575.02441406 C-73.43571788 569.32201492 -87.4283763 557.96761527 -97.01318359 541.05566406 C-101.56066511 531.20086867 -104.33306145 521.47104514 -104.26765919 510.61314774 C-104.27086567 509.80974551 -104.27407214 509.00634329 -104.27737579 508.17859554 C-104.28564488 505.4996253 -104.27976237 502.82088044 -104.27388 500.14190674 C-104.2769021 498.19649698 -104.28079188 496.25108842 -104.28547257 494.30568194 C-104.29575389 488.96955072 -104.29357038 483.63348667 -104.28929198 478.29734993 C-104.28682498 472.53850708 -104.29583864 466.77968042 -104.30332947 461.02084351 C-104.31607958 449.74196874 -104.31786974 438.46311779 -104.3155292 427.18423703 C-104.3137461 418.01550947 -104.31549552 408.84678914 -104.31975365 399.67806244 C-104.32034884 398.37306474 -104.32094402 397.06806704 -104.32155725 395.72352396 C-104.32276901 393.07238827 -104.32398314 390.42125258 -104.32519963 387.7701169 C-104.33314145 369.9689328 -104.33690593 352.16775125 -104.33288288 334.3665657 C-104.33272651 333.67067765 -104.33257013 332.97478959 -104.33240901 332.25781401 C-104.33160326 328.7309437 -104.33075749 325.20407339 -104.32989571 321.67720309 C-104.32972462 320.97678219 -104.32955354 320.27636129 -104.32937726 319.55471552 C-104.32903061 318.13829442 -104.32868208 316.72187332 -104.32833168 315.30545222 C-104.32297571 293.2710018 -104.33090211 271.2365914 -104.34936523 249.20214844 C-104.37009517 224.43353911 -104.38077489 199.6649548 -104.37678975 174.89633632 C-104.37487758 161.78672421 -104.37736679 148.67714857 -104.39150429 135.56754303 C-104.40341904 124.4061499 -104.40482193 113.24481568 -104.39271412 102.08342174 C-104.38682593 96.39071133 -104.38572446 90.69810866 -104.39771652 85.00540543 C-104.40857674 79.78928991 -104.40547014 74.57337207 -104.39145484 69.3572658 C-104.3888083 67.47508189 -104.39117306 65.59288247 -104.3991907 63.71071377 C-104.48691099 41.5730854 -99.64759138 23.82440099 -83.63427734 7.65332031 C-75.11647454 -0.35794649 -66.16809287 -5.50187135 -55.01318359 -8.94433594 C-54.30935547 -9.17121094 -53.60552734 -9.39808594 -52.88037109 -9.63183594 C-34.24195837 -14.73436718 -16.32299079 -8.7847079 0 0 Z " fill="#FEFEFE" transform="translate(937.01318359375,792.9443359375)"/>
<path d="M0 0 C0.33 0 0.66 0 1 0 C1 59.4 1 118.8 1 180 C-58.4 180 -117.8 180 -179 180 C-179 179.67 -179 179.34 -179 179 C-177.77410156 178.86464844 -176.54820313 178.72929687 -175.28515625 178.58984375 C-124.30610504 172.44143992 -75.37086649 146.68377703 -43.3125 106.125 C-37.82619504 99.00523207 -32.74470441 91.63245881 -28 84 C-27.5889502 83.34112793 -27.17790039 82.68225586 -26.75439453 82.00341797 C-11.65793526 57.39282935 -2.70707554 28.70433551 0 0 Z " fill="#000000" transform="translate(2159,1980)"/>
<path d="M0 0 C0.33 0 0.66 0 1 0 C1.08975098 0.64735107 1.17950195 1.29470215 1.27197266 1.96166992 C8.86181017 55.5583992 33.51605577 105.30281603 77.3984375 138.375 C108.02695048 160.92400901 142.18006939 174.76059775 180 179 C180 179.33 180 179.66 180 180 C120.6 180 61.2 180 0 180 C0 120.6 0 61.2 0 0 Z " fill="#000000" transform="translate(0,1980)"/>
<path d="M0 0 C59.4 0 118.8 0 180 0 C180 59.4 180 118.8 180 180 C179.67 180 179.34 180 179 180 C178.91548584 179.36835938 178.83097168 178.73671875 178.74389648 178.0859375 C171.48039718 125.26740688 147.18471446 75.97980477 104.3671875 42.95678711 C97.77987195 37.99544303 90.98801757 33.37651616 84 29 C83.40058594 28.62133789 82.80117187 28.24267578 82.18359375 27.85253906 C57.95360485 12.76767016 28.48226955 2.94377606 0 1 C0 0.67 0 0.34 0 0 Z " fill="#000000" transform="translate(1980,0)"/>
<path d="M0 0 C59.4 0 118.8 0 180 0 C180 0.33 180 0.66 180 1 C178.70449219 1.15855469 177.40898437 1.31710938 176.07421875 1.48046875 C125.25237819 8.01153798 76.38920859 33.27942827 44.3125 73.875 C19.99993182 105.4275633 5.93579005 140.47038319 1 180 C0.67 180 0.34 180 0 180 C0 120.6 0 61.2 0 0 Z " fill="#000000" transform="translate(0,0)"/>
</svg>
